<?xml version="1.0" encoding="UTF-8" standalone="no"?>
<!DOCTYPE svg PUBLIC "-//W3C//DTD SVG 1.1//EN"
 "http://www.w3.org/Graphics/SVG/1.1/DTD/svg11.dtd">
<!-- Generated by graphviz version 10.0.1 (0)
 -->
<!-- Title: G Pages: 1 -->
<svg width="512pt" height="298pt"
 viewBox="0.00 0.00 512.00 298.00" xmlns="http://www.w3.org/2000/svg" xmlns:xlink="http://www.w3.org/1999/xlink">
<g id="graph0" class="graph" transform="scale(1 1) rotate(0) translate(4 294)">
<title>G</title>
<g id="clust1" class="cluster">
<title>cluster_frontend</title>
<polygon fill="gray" stroke="gray" points="8,-89 8,-201 161,-201 161,-89 8,-89"/>
<text text-anchor="middle" x="84.5" y="-185.6" font-family="HackNerdFont" font-size="12.00">Frontend</text>
</g>
<g id="clust2" class="cluster">
<title>cluster_vercel</title>
<polygon fill="lightgray" stroke="lightgray" points="16,-97 16,-171 153,-171 153,-97 16,-97"/>
<text text-anchor="middle" x="84.5" y="-155.6" font-family="HackNerdFont" font-size="12.00">Vercel</text>
</g>
<g id="clust3" class="cluster">
<title>cluster_backend</title>
<polygon fill="gray" stroke="gray" points="169,-89 169,-201 367,-201 367,-89 169,-89"/>
<text text-anchor="middle" x="268" y="-185.6" font-family="HackNerdFont" font-size="12.00">Backend</text>
</g>
<g id="clust4" class="cluster">
<title>cluster_ec2</title>
<polygon fill="lightgray" stroke="lightgray" points="177,-97 177,-171 359,-171 359,-97 177,-97"/>
<text text-anchor="middle" x="268" y="-155.6" font-family="HackNerdFont" font-size="12.00">AWS EC2 Instance</text>
</g>
<g id="clust5" class="cluster">
<title>cluster_database</title>
<polygon fill="gray" stroke="gray" points="375,-8 375,-282 504,-282 504,-8 375,-8"/>
<text text-anchor="middle" x="439.5" y="-266.6" font-family="HackNerdFont" font-size="12.00">Database</text>
</g>
<g id="clust6" class="cluster">
<title>cluster_mongo</title>
<polygon fill="lightgray" stroke="lightgray" points="383,-16 383,-252 496,-252 496,-16 383,-16"/>
<text text-anchor="middle" x="439.5" y="-236.6" font-family="HackNerdFont" font-size="12.00">MongoDB Atlas</text>
</g>
<!-- React Frontend -->
<g id="node1" class="node">
<title>React Frontend</title>
<polygon fill="white" stroke="white" points="145,-141 24,-141 24,-105 145,-105 145,-141"/>
<text text-anchor="middle" x="84.5" y="-118.72" font-family="HackNerdFont" font-size="12.00">React Frontend</text>
</g>
<!-- Nginx -->
<g id="node2" class="node">
<title>Nginx</title>
<polygon fill="white" stroke="white" points="239,-141 185,-141 185,-105 239,-105 239,-141"/>
<text text-anchor="middle" x="212" y="-118.72" font-family="HackNerdFont" font-size="12.00">Nginx</text>
</g>
<!-- React Frontend&#45;&gt;Nginx -->
<g id="edge1" class="edge">
<title>React Frontend&#45;&gt;Nginx</title>
<path fill="none" stroke="black" d="M145.31,-123C154.77,-123 164.32,-123 173.1,-123"/>
<polygon fill="black" stroke="black" points="173,-126.5 183,-123 173,-119.5 173,-126.5"/>
</g>
<!-- Node API -->
<g id="node3" class="node">
<title>Node API</title>
<polygon fill="white" stroke="white" points="351,-141 275,-141 275,-105 351,-105 351,-141"/>
<text text-anchor="middle" x="313" y="-118.72" font-family="HackNerdFont" font-size="12.00">Node API</text>
</g>
<!-- Nginx&#45;&gt;Node API -->
<g id="edge2" class="edge">
<title>Nginx&#45;&gt;Node API</title>
<path fill="none" stroke="black" d="M239.27,-123C246.75,-123 255.15,-123 263.51,-123"/>
<polygon fill="black" stroke="black" points="263.28,-126.5 273.28,-123 263.28,-119.5 263.28,-126.5"/>
</g>
<!-- Rooms -->
<g id="node4" class="node">
<title>Rooms</title>
<polygon fill="white" stroke="white" points="466,-60 412,-60 412,-24 466,-24 466,-60"/>
<text text-anchor="middle" x="439" y="-37.73" font-family="HackNerdFont" font-size="12.00">Rooms</text>
</g>
<!-- Node API&#45;&gt;Rooms -->
<g id="edge3" class="edge">
<title>Node API&#45;&gt;Rooms</title>
<path fill="none" stroke="black" d="M331.71,-104.55C343.27,-93.25 359.11,-79.07 375,-69 383.08,-63.88 392.29,-59.32 401.13,-55.46"/>
<polygon fill="black" stroke="black" points="402.32,-58.76 410.22,-51.7 399.64,-52.29 402.32,-58.76"/>
</g>
<!-- Sessions -->
<g id="node5" class="node">
<title>Sessions</title>
<polygon fill="white" stroke="white" points="477,-114 401,-114 401,-78 477,-78 477,-114"/>
<text text-anchor="middle" x="439" y="-91.72" font-family="HackNerdFont" font-size="12.00">Sessions</text>
</g>
<!-- Node API&#45;&gt;Sessions -->
<g id="edge4" class="edge">
<title>Node API&#45;&gt;Sessions</title>
<path fill="none" stroke="black" d="M351.2,-114.9C363.34,-112.26 377,-109.28 389.82,-106.49"/>
<polygon fill="black" stroke="black" points="390.32,-109.96 399.34,-104.42 388.83,-103.12 390.32,-109.96"/>
</g>
<!-- Messages -->
<g id="node6" class="node">
<title>Messages</title>
<polygon fill="white" stroke="white" points="477,-168 401,-168 401,-132 477,-132 477,-168"/>
<text text-anchor="middle" x="439" y="-145.72" font-family="HackNerdFont" font-size="12.00">Messages</text>
</g>
<!-- Node API&#45;&gt;Messages -->
<g id="edge5" class="edge">
<title>Node API&#45;&gt;Messages</title>
<path fill="none" stroke="black" d="M351.2,-131.1C363.34,-133.74 377,-136.72 389.82,-139.51"/>
<polygon fill="black" stroke="black" points="388.83,-142.88 399.34,-141.58 390.32,-136.04 388.83,-142.88"/>
</g>
<!-- Users -->
<g id="node7" class="node">
<title>Users</title>
<polygon fill="white" stroke="white" points="466,-222 412,-222 412,-186 466,-186 466,-222"/>
<text text-anchor="middle" x="439" y="-199.72" font-family="HackNerdFont" font-size="12.00">Users</text>
</g>
<!-- Node API&#45;&gt;Users -->
<g id="edge6" class="edge">
<title>Node API&#45;&gt;Users</title>
<path fill="none" stroke="black" d="M331.71,-141.45C343.27,-152.75 359.11,-166.93 375,-177 383.08,-182.12 392.29,-186.68 401.13,-190.54"/>
<polygon fill="black" stroke="black" points="399.64,-193.71 410.22,-194.3 402.32,-187.24 399.64,-193.71"/>
</g>
</g>
</svg>
